<?xml version="1.0" encoding="UTF-8" standalone="no"?>
<svg
   width="112.42187mm"
   height="67.349838mm"
   viewBox="0 0 112.42187 67.349838"
   version="1.1"
   id="svg5"
   xmlns="http://www.w3.org/2000/svg"
   xmlns:svg="http://www.w3.org/2000/svg">
  <defs
     id="defs2" />
  <g
     id="layer1"
     transform="translate(54.719853,-187.98892)">
    <path
       style="fill:#0b369e;fill-opacity:1;stroke-width:0.0572238"
       d="m -10.13106,255.0291 c -0.277845,-0.24934 -0.414294,-0.3265 -0.715294,-0.40451 -0.590514,-0.15304 -0.743904,-0.20579 -0.743904,-0.2559 0,-0.0257 0.19043,-0.16555 0.42318,-0.31062 0.428117,-0.26684 0.492394,-0.34145 0.492394,-0.57157 0,-0.0701 0.03536,-0.1758 0.07859,-0.23491 0.07633,-0.10438 0.0959,-0.10288 0.683281,0.0529 0.5672349,0.15035 0.6478915,0.15768 1.301831,0.11839 l 0.69713,-0.0418 -0.03158,0.19272 c -0.017368,0.10599 -0.049691,0.26563 -0.071834,0.35474 -0.035082,0.1412 -0.00479,0.19804 0.2356672,0.44216 0.1517577,0.15408 0.2621715,0.29389 0.245364,0.31071 -0.01681,0.0168 -0.2767701,0.0539 -0.5776939,0.0823 -0.4921735,0.0465 -0.595877,0.0781 -1.0323731,0.3141 -0.266882,0.14428 -0.5203786,0.26171 -0.5633264,0.26094 -0.042947,-5.5e-4 -0.2325891,-0.14004 -0.4214268,-0.30951 z m 6.071628,-0.19939 c -0.1155445,-0.0918 -0.3516612,-0.21149 -0.5246992,-0.26591 -0.1730385,-0.0545 -0.3276729,-0.12009 -0.3436383,-0.14591 -0.015955,-0.0258 0.075661,-0.14154 0.203601,-0.25712 0.1279348,-0.11559 0.2770066,-0.28574 0.3312622,-0.37812 0.094279,-0.16054 0.1112939,-0.16623 0.3847578,-0.12893 0.1573649,0.0215 0.5436216,0.0427 0.8583511,0.0472 l 0.5722344,0.008 0.018382,0.22504 c 0.010081,0.12377 0.055168,0.27758 0.100144,0.34178 0.1356738,0.1937 0.096867,0.25378 -0.1900589,0.2942 -0.149496,0.0211 -0.4681803,0.12563 -0.7081935,0.23239 -0.2400065,0.10677 -0.4489047,0.19412 -0.4642237,0.19412 -0.01531,0 -0.1223827,-0.0751 -0.2379239,-0.16696 z m -15.738085,-1.17148 c -0.331083,-0.3607 -0.544535,-0.54657 -0.649326,-0.56547 -0.08586,-0.0155 -0.349241,-0.0793 -0.585288,-0.14182 -0.236046,-0.0626 -0.532178,-0.13194 -0.65807,-0.15426 -0.344152,-0.061 -0.772517,-0.20979 -0.772517,-0.26829 0,-0.0285 0.344418,-0.2189 0.765375,-0.42323 l 0.765374,-0.37152 0.02556,-0.48702 c 0.01405,-0.26784 0.05425,-0.51569 0.08932,-0.55076 0.04686,-0.0468 0.144348,-0.0379 0.36784,0.0338 0.351036,0.11261 1.127539,0.40558 1.419941,0.53574 0.110156,0.049 0.277534,0.0894 0.371953,0.0898 0.2737,9.9e-4 1.786553,-0.1327 1.871628,-0.16535 0.04249,-0.0163 0.124386,0.005 0.181992,0.047 0.09297,0.068 0.09811,0.11153 0.04575,0.38752 -0.142177,0.7494 -0.173643,0.64065 0.340769,1.17779 0.284013,0.29656 0.444399,0.50604 0.412145,0.5383 -0.02904,0.029 -0.515307,0.0692 -1.08059,0.0892 l -1.027787,0.0365 -0.286117,0.1859 c -0.698889,0.45412 -0.859831,0.54351 -0.978438,0.54351 -0.08626,0 -0.282651,-0.17033 -0.61951,-0.53729 z m -11.506227,-3.07514 c -0.06295,-0.0312 -0.320452,-0.33158 -0.572235,-0.66736 -0.726011,-0.96823 -0.782934,-1.02124 -1.249797,-1.16394 -0.225326,-0.0689 -0.628562,-0.195 -0.896083,-0.2803 -0.267519,-0.0853 -0.679529,-0.21244 -0.915575,-0.28255 -0.935801,-0.27795 -1.120946,-0.35883 -1.05723,-0.46193 0.01581,-0.0256 0.240849,-0.16164 0.500075,-0.30232 0.259226,-0.14069 0.625823,-0.3399 0.814661,-0.44271 0.188836,-0.1028 0.411751,-0.22203 0.495363,-0.26495 0.162763,-0.0835 0.18365,-0.14701 0.369964,-1.124 0.104478,-0.54786 0.191964,-0.6922 0.385312,-0.63575 0.06749,0.0198 0.728572,0.30384 1.469056,0.63139 l 1.346331,0.59558 h 1.54889 c 1.403531,0 1.557412,0.01 1.639682,0.10031 0.08337,0.0921 0.07484,0.15645 -0.10429,0.78684 -0.107295,0.37756 -0.195661,0.73175 -0.196369,0.78708 -7.06e-4,0.0554 0.327031,0.43628 0.728311,0.84659 0.40128,0.41029 0.738179,0.77058 0.748664,0.80064 0.03753,0.1076 -0.171903,0.12311 -0.834319,0.0618 -0.369906,-0.0342 -1.004367,-0.0912 -1.409915,-0.1265 l -0.737359,-0.0642 -0.321274,0.23272 c -0.718738,0.52062 -1.503087,1.03795 -1.568178,1.03431 -0.03808,-0.002 -0.120739,-0.0295 -0.183685,-0.0607 z m 60.152557,-8.04092 c -0.02161,-0.0216 -0.03931,-0.16665 -0.03931,-0.32227 0,-0.28698 0.0915,-0.49623 0.563436,-1.28842 0.09926,-0.16662 0.180473,-0.3139 0.180473,-0.32728 0,-0.0212 0.417139,-0.75817 0.663546,-1.17233 0.302853,-0.50903 0.307978,-0.42186 -0.08149,-1.38666 -0.194239,-0.48121 -0.353163,-0.89423 -0.353163,-0.91783 0,-0.0236 -0.04866,-0.15207 -0.108117,-0.28549 -0.05947,-0.13341 -0.151716,-0.35845 -0.204984,-0.50008 -0.05327,-0.14163 -0.130497,-0.33476 -0.171606,-0.42917 -0.04112,-0.0944 -0.15318,-0.37768 -0.249043,-0.62947 -0.291863,-0.76656 -1.216999,-3.12567 -1.323994,-3.37618 -0.02688,-0.063 -0.08715,-0.21745 -0.133927,-0.34334 -0.258063,-0.69453 -0.247279,-0.68229 -0.80841,-0.91681 -0.285539,-0.11934 -0.552516,-0.24281 -0.593274,-0.27438 -0.04903,-0.0379 -0.06841,-0.16566 -0.05723,-0.3773 l 0.0169,-0.31989 h 2.515798 2.51579 l 0.01003,0.32724 c 0.0058,0.18879 -0.01753,0.3489 -0.05518,0.37841 -0.03591,0.0282 -0.302149,0.13502 -0.591687,0.23749 -0.338962,0.11997 -0.53311,0.21956 -0.545197,0.27965 -0.01031,0.0514 0.02523,0.2221 0.07901,0.37947 0.05377,0.15737 0.256899,0.78825 0.451401,1.40198 0.611861,1.93063 0.693094,2.18415 0.953482,2.97562 0.139776,0.42488 0.27802,0.79698 0.307201,0.82688 0.106106,0.10871 0.246274,-0.16547 0.495874,-0.96994 0.04881,-0.15737 0.121196,-0.36337 0.160828,-0.45779 0.03965,-0.0944 0.124174,-0.33904 0.187852,-0.54362 0.06369,-0.20458 0.312694,-0.93846 0.55336,-1.63087 0.708848,-2.0394 0.698866,-1.9751 0.32974,-2.12277 -0.799799,-0.31993 -0.839166,-0.36043 -0.8057,-0.82883 l 0.01809,-0.25292 h 2.031442 2.031426 v 0.36467 0.36467 l -0.575817,0.23618 c -0.86692,0.35558 -0.705259,0.1268 -1.54174,2.18178 -0.433371,1.06465 -0.710155,1.73612 -0.802005,1.94559 -0.04142,0.0944 -0.118405,0.28755 -0.17113,0.42917 -0.05273,0.14164 -0.119111,0.30902 -0.147542,0.37197 -0.05504,0.12187 -0.61391,1.46723 -0.808205,1.94559 -0.132645,0.32659 -0.514565,1.47537 -0.618283,1.85976 -0.03822,0.14163 -0.09049,0.32188 -0.116166,0.40056 -0.0257,0.0787 -0.102792,0.3362 -0.171357,0.57225 -0.06857,0.23604 -0.170181,0.58367 -0.225802,0.77251 -0.05562,0.18884 -0.133522,0.45921 -0.173115,0.60085 -0.0396,0.14162 -0.114512,0.38625 -0.166498,0.54362 l -0.09452,0.28611 -1.145946,0.0154 c -0.630269,0.009 -1.163632,-0.002 -1.185245,-0.0239 z m -77.290986,-3.96623 c -1.223322,-0.13069 -2.101066,-0.47246 -2.745387,-1.069 -0.422992,-0.39161 -0.651246,-0.71155 -0.841267,-1.1792 -0.283017,-0.6965 -0.30438,-1.01496 -0.304465,-4.53856 -5.6e-5,-2.52539 -0.01628,-3.2857 -0.07161,-3.35596 -0.03934,-0.05 -0.34191,-0.17473 -0.672375,-0.27726 -0.330466,-0.10253 -0.634158,-0.21229 -0.674871,-0.2439 -0.04945,-0.0384 -0.06845,-0.16913 -0.05723,-0.3938 l 0.0168,-0.33633 2.846878,-0.0122 2.846878,-0.0123 -2.29e-4,0.37196 -2.28e-4,0.37195 -0.586326,0.1626 c -0.322479,0.0894 -0.618899,0.17248 -0.658712,0.18452 -0.163119,0.0493 -0.185005,0.36491 -0.179588,2.5893 0.006,2.47352 0.06664,4.36679 0.151763,4.74013 0.176793,0.77541 0.750178,1.48544 1.432972,1.77446 0.360329,0.15253 0.433222,0.16253 1.185073,0.16253 0.792899,0 0.805431,-0.002 1.21995,-0.19627 0.284803,-0.13347 0.497419,-0.28369 0.664452,-0.46947 0.256034,-0.28476 0.604826,-0.90358 0.604826,-1.07307 0,-0.054 0.02212,-0.12253 0.04915,-0.15242 0.148259,-0.16396 0.179736,-0.84959 0.179736,-3.91494 v -3.18344 l -0.944187,-0.29893 -0.944187,-0.29893 8e-6,-0.38499 8e-6,-0.38499 2.389072,0.011 2.389072,0.011 0.01741,0.32637 c 0.0096,0.17951 -0.0071,0.35093 -0.03715,0.38095 -0.03002,0.0299 -0.345719,0.16413 -0.701571,0.29804 -0.567104,0.21342 -0.652164,0.26278 -0.688782,0.3997 -0.02298,0.0859 -0.04078,1.47387 -0.03956,3.08432 0.0024,3.12169 -0.01123,3.40704 -0.189887,3.9863 -0.342348,1.11 -0.997198,1.90132 -1.991613,2.40665 -0.361598,0.18375 -0.435199,0.20965 -1.141472,0.40178 -0.482337,0.1312 -1.798453,0.18983 -2.523362,0.11238 z m 39.512806,0.0216 c -1.959571,-0.27087 -3.163312,-1.30427 -3.560759,-3.05685 -0.1156,-0.50975 -0.117333,-1.96626 -0.003,-2.46061 0.32751,-1.41515 1.164066,-2.50942 2.365082,-3.0937 0.7321439,-0.35618 1.2334642,-0.46402 2.1714032,-0.46712 1.1384319,-0.004 1.6415867,0.13737 2.406796,0.6751 0.8283271,0.58209 1.3137124,1.54571 1.4880962,2.95424 0.047436,0.38313 0.07325,0.73046 0.057373,0.77183 -0.023357,0.0609 -0.6034279,0.0752 -3.0310364,0.0752 -3.411137,0 -3.106829,-0.052 -3.014499,0.51528 0.2879431,1.76919 1.5482539,2.77716 3.3338346,2.66634 0.5328705,-0.0331 1.2802663,-0.19974 1.8208906,-0.40605 0.3883117,-0.14817 0.5056078,-0.13915 0.6178008,0.0475 l 0.097494,0.16224 -0.2840589,0.25871 c -0.6125763,0.55791 -1.5231849,1.00765 -2.5771151,1.2728 -0.2864895,0.072 -1.5654448,0.12966 -1.8883747,0.085 z m 1.020462,-5.60802 c 1.2251073,-0.0385 1.2505035,-0.0419 1.3084818,-0.1691 0.101932,-0.22371 -0.1156427,-1.14846 -0.3738978,-1.58915 -0.4978982,-0.84959 -1.6382997,-0.97794 -2.3036132,-0.25926 -0.3553431,0.38385 -0.5289514,0.75263 -0.7031928,1.49374 -0.131027,0.55732 -0.074097,0.63202 0.4509139,0.59168 0.2045738,-0.0157 0.9341622,-0.0462 1.6213081,-0.0679 z m 15.2310038,5.60826 c -0.6633043,-0.0641 -2.2669461,-0.3621 -2.3616058,-0.43895 -0.055423,-0.045 -0.069001,-0.33889 -0.057224,-1.23841 l 0.015459,-1.17944 0.730044,-0.016 c 0.7137571,-0.0157 0.7311828,-0.0131 0.7811089,0.11445 0.028088,0.0718 0.1469639,0.43254 0.2641642,0.80172 0.1171963,0.3692 0.2448835,0.69765 0.2837473,0.72991 0.1739806,0.14439 0.7767271,0.29701 1.2885071,0.32626 0.4597206,0.0263 0.5961239,0.0125 0.8838163,-0.0895 0.4354866,-0.15442 0.6798797,-0.392 0.8017298,-0.7794 0.079149,-0.25165 0.084249,-0.34708 0.029533,-0.55271 -0.1570815,-0.59028 -0.4914301,-0.80961 -1.997586,-1.31043 -1.8343526,-0.60993 -2.4468065,-0.99325 -2.8155029,-1.76214 -0.1673944,-0.34908 -0.1824987,-0.42771 -0.1830194,-0.95272 -6.618e-4,-0.68476 0.1273911,-1.07782 0.5001837,-1.53513 0.3692072,-0.45292 1.0476186,-0.86019 1.7371421,-1.04287 1.1450403,-0.30336 3.2002879,-0.1996 4.3813699,0.2212 l 0.353256,0.12586 0.01556,1.03655 0.01556,1.03653 -0.180079,0.036 c -0.09905,0.0198 -0.409267,0.036 -0.689369,0.036 -0.585072,0 -0.492063,0.0943 -0.818371,-0.82973 -0.209087,-0.59213 -0.3399693,-0.7172 -0.8789834,-0.84008 -0.6601554,-0.15048 -1.3925918,-0.0696 -1.7890098,0.19755 -0.4854024,0.32711 -0.6059222,0.92337 -0.2879714,1.42472 0.2720976,0.42905 0.48468,0.52484 2.7242736,1.22741 0.993193,0.31156 1.614855,0.74844 1.933707,1.35893 0.179309,0.34332 0.183267,0.36724 0.181318,1.09489 -0.0021,0.73281 -0.0048,0.74903 -0.191177,1.08725 -0.2377,0.43141 -0.743287,0.92048 -1.207157,1.16772 -0.196336,0.10465 -0.617384,0.26521 -0.9356607,0.35681 -0.4967594,0.14297 -0.700451,0.16961 -1.438771,0.18822 -0.4730468,0.0119 -0.9630964,0.0118 -1.0889858,-5.5e-4 z m 15.1069962,-0.021 c -0.574021,-0.0959 -1.109131,-0.35332 -1.456335,-0.70068 -0.214515,-0.2146 -0.50884,-0.80624 -0.592511,-1.19105 -0.03078,-0.14163 -0.07166,-1.49354 -0.09082,-3.00423 l -0.03483,-2.74673 -0.617619,-0.0163 -0.617619,-0.0163 0.01676,-0.40611 0.01676,-0.40611 0.621739,-0.21653 c 0.34196,-0.11909 0.642397,-0.23803 0.667642,-0.26431 0.04823,-0.0502 0.347584,-0.88381 0.638906,-1.77919 0.135701,-0.41709 0.19846,-0.53622 0.295115,-0.56027 0.06752,-0.0168 0.406018,-0.023 0.752218,-0.0139 l 0.629461,0.0167 0.01556,1.11153 c 0.0098,0.70179 0.03879,1.13948 0.07854,1.18737 0.049,0.059 0.362847,0.076 1.415011,0.0767 0.743631,3.3e-4 1.385228,0.0219 1.425768,0.0476 0.05397,0.0342 0.06929,0.19881 0.05723,0.61427 l -0.01647,0.56751 -1.413539,0.0286 c -0.90646,0.0184 -1.435872,0.051 -1.475784,0.0909 -0.04347,0.0436 -0.05724,0.82871 -0.04565,2.60367 0.01643,2.51396 0.01801,2.54439 0.148259,2.82743 0.167498,0.36393 0.427946,0.63472 0.755282,0.78527 0.334654,0.15392 1.160372,0.20175 1.747881,0.10125 0.235989,-0.0403 0.439022,-0.0633 0.451179,-0.0508 0.01217,0.0125 0.03092,0.18721 0.04169,0.38839 0.01903,0.35508 0.01458,0.36863 -0.152089,0.46284 -0.184833,0.10449 -0.556208,0.23525 -1.058633,0.37273 -0.370118,0.10127 -1.787881,0.1589 -2.203106,0.0896 z m -41.5676,-0.18804 c -0.02757,-0.0716 -0.11979,-0.3103 -0.204938,-0.53061 -0.08515,-0.22031 -0.227569,-0.59369 -0.316492,-0.82973 -0.40271,-1.069 -1.112256,-2.91664 -1.197654,-3.11869 -0.02661,-0.063 -0.130248,-0.33332 -0.230317,-0.60085 -0.375545,-1.00397 -0.510952,-1.36013 -0.728028,-1.91494 l -0.223095,-0.5702 -0.54088,-0.20232 -0.540879,-0.20232 -0.01693,-0.38686 -0.01693,-0.38687 2.506155,0.0149 2.506155,0.0149 0.01689,0.31989 c 0.01115,0.21124 -0.0083,0.33976 -0.05723,0.37841 -0.04076,0.0322 -0.312304,0.14283 -0.603429,0.24587 -0.526865,0.18648 -0.529316,0.18826 -0.529316,0.38161 0,0.10684 0.04742,0.3415 0.10539,0.52149 0.05797,0.17997 0.137829,0.4431 0.177473,0.58472 0.03964,0.14164 0.120972,0.40179 0.180725,0.57812 0.05976,0.17634 0.108646,0.36337 0.108646,0.41565 0,0.0523 0.02378,0.13976 0.05285,0.19441 0.02907,0.0547 0.226681,0.69161 0.439145,1.4155 0.441567,1.50443 0.508943,1.68809 0.619282,1.68809 0.08166,0 0.630486,-1.35625 1.238865,-3.06145 0.101059,-0.28326 0.215134,-0.59227 0.253501,-0.68669 0.368358,-0.90652 0.611865,-1.65787 0.56261,-1.73596 -0.0304,-0.0482 -0.265991,-0.17854 -0.52352,-0.28966 l -0.468238,-0.20201 v -0.38903 -0.38903 l 2.017127,0.015 2.017128,0.015 v 0.36476 0.36477 l -0.629458,0.25569 c -0.346203,0.14063 -0.657672,0.28549 -0.692154,0.32191 -0.05422,0.0573 -0.148866,0.2708 -0.511308,1.15349 -0.07058,0.1719 -0.184663,0.43823 -0.337022,0.78682 -0.0447,0.10229 -0.274779,0.66237 -0.511271,1.24461 -0.236493,0.58225 -0.647778,1.58652 -0.913968,2.23171 -0.266191,0.6452 -0.540594,1.31471 -0.609785,1.48781 -0.0692,0.17311 -0.160439,0.37911 -0.202773,0.4578 l -0.07696,0.14305 -1.034614,0.0156 c -1.029741,0.0155 -1.03485,0.015 -1.084738,-0.11445 z m -21.223584,-0.28476 0.01704,-0.35501 0.621885,-0.20582 c 0.356961,-0.11815 0.655585,-0.25192 0.700989,-0.31401 0.11685,-0.1598 0.117427,-5.99104 6.05e-4,-6.10786 -0.05823,-0.0582 -0.257643,-0.0778 -0.772519,-0.0756 l -0.694023,0.003 3e-6,-0.38356 c 3e-6,-0.38345 5.7e-5,-0.38359 0.185979,-0.43791 2.358744,-0.68923 2.602695,-0.75217 2.915493,-0.75217 0.384539,0 0.351399,-0.0423 0.594152,0.75822 0.08351,0.27539 0.180992,0.50001 0.216624,0.49917 0.03563,-9.9e-4 0.219288,-0.11869 0.408125,-0.26189 1.242981,-0.94259 3.078038,-1.25482 4.181663,-0.71151 0.450016,0.22154 0.882684,0.68838 1.056173,1.13958 0.06804,0.17696 0.143835,0.37325 0.168422,0.43619 0.134689,0.3448 0.17303,1.10566 0.17303,3.43371 v 2.48739 l 0.185977,0.0765 c 0.102287,0.0421 0.36623,0.13744 0.586541,0.21198 0.22031,0.0745 0.426314,0.16529 0.457788,0.20166 0.03147,0.0364 0.0484,0.21171 0.03762,0.38963 l -0.0196,0.3235 h -2.48666 -2.486654 l 0.01704,-0.3517 c 0.01958,-0.40416 -0.02055,-0.36921 0.73233,-0.63794 l 0.543623,-0.19403 0.01631,-2.25504 c 0.01166,-1.61205 -0.0032,-2.32846 -0.05198,-2.51254 -0.268177,-1.01128 -0.99402,-1.50303 -2.082699,-1.41101 -0.441059,0.0373 -1.344359,0.294 -1.414303,0.40194 -0.02313,0.0357 -0.04243,1.33251 -0.04292,2.88182 l -8.82e-4,2.81694 0.132008,0.0865 c 0.07261,0.0475 0.349423,0.16173 0.615152,0.25369 l 0.483144,0.16721 0.01692,0.37708 0.01692,0.37708 h -2.523179 -2.523177 z m 11.814609,0.31685 c -0.05147,-0.0515 -0.04703,-0.54631 0.0056,-0.62752 0.02312,-0.0356 0.296669,-0.14865 0.60788,-0.2511 0.311211,-0.10247 0.61378,-0.23423 0.672376,-0.29284 0.10118,-0.10117 0.106494,-0.25546 0.105661,-3.06784 -5.04e-4,-1.77155 -0.02273,-2.99581 -0.05527,-3.04716 -0.04311,-0.068 -0.194189,-0.0865 -0.728723,-0.089 -0.370881,-0.002 -0.707746,-0.008 -0.748589,-0.0143 -0.0539,-0.008 -0.06959,-0.10914 -0.05723,-0.36872 l 0.01704,-0.35765 0.314729,-0.10232 c 0.173101,-0.0562 0.778239,-0.23233 1.344752,-0.39122 0.819348,-0.2298 1.149989,-0.29525 1.616562,-0.32005 0.474842,-0.0252 0.587211,-0.0161 0.59006,0.0478 0.002,0.0435 4.7e-4,1.72954 -0.0033,3.74684 -0.0038,2.01729 0.0097,3.73346 0.02981,3.81371 0.03024,0.1205 0.113041,0.1729 0.475392,0.30083 0.241324,0.0852 0.548211,0.19437 0.681971,0.24261 l 0.2432,0.0877 v 0.36418 0.36417 h -2.536907 c -1.3953,0 -2.554075,-0.0171 -2.575057,-0.0382 z m 25.5641344,-0.0406 c -0.016645,-0.0434 -0.022254,-0.20427 -0.012525,-0.35764 l 0.017715,-0.27884 0.5892389,-0.20029 c 0.3240864,-0.11015 0.6133848,-0.2389 0.6428904,-0.28612 0.067773,-0.10843 0.072399,-6.00748 0.00479,-6.11415 -0.035176,-0.0555 -0.2391241,-0.0828 -0.7287236,-0.0975 -0.3739315,-0.0113 -0.7120645,-0.0217 -0.7514065,-0.023 -0.049019,-0.002 -0.071527,-0.1111 -0.071527,-0.34736 0,-0.41166 -0.1634603,-0.32492 1.5736432,-0.8351 1.04056195,-0.3056 1.31810364,-0.36686 1.60015068,-0.35315 l 0.34123698,0.0165 0.12441071,0.39929 c 0.0684267,0.2196 0.16119855,0.42249 0.2061577,0.45085 0.0558498,0.0353 0.15700811,0.004 0.31929492,-0.0983 0.90364111,-0.57045 1.96031571,-0.8511 2.82607421,-0.75062 l 0.3435115,0.0399 -0.030642,0.29424 c -0.07262,0.69693 -0.2653338,1.99324 -0.3061302,2.05926 -0.063698,0.10306 -0.4166023,-0.0225 -1.4068256,-0.50072 -0.8549086,-0.41282 -1.0636331,-0.4918 -1.29982749,-0.4918 -0.21962142,0 -0.29436904,0.0242 -0.34060832,0.11068 -0.0386334,0.0721 -0.0592369,1.13489 -0.0592369,3.05512 0,2.72277 0.007531,2.95299 0.10014001,3.05811 0.0890521,0.10108 1.1548794,0.52846 1.3179085,0.52846 0.1125801,0 0.1561278,0.15436 0.1359969,0.48207 l -0.019589,0.31906 h -2.54293706 c -2.10670884,0 -2.54813334,-0.0135 -2.57318824,-0.0788 z m 16.2968746,-0.27783 0.01704,-0.35666 0.624965,-0.21376 c 0.343723,-0.11758 0.645898,-0.24679 0.671492,-0.28712 0.02561,-0.0403 0.04694,-1.43017 0.04742,-3.08851 6.61e-4,-2.35101 -0.01489,-3.02496 -0.07066,-3.05967 -0.03934,-0.0245 -0.386973,-0.0386 -0.772518,-0.0312 l -0.700984,0.0133 v -0.39433 -0.39433 l 0.214587,-0.0596 c 0.118024,-0.0328 0.497845,-0.14055 0.844046,-0.2394 1.715969,-0.49 1.821842,-0.51337 2.331858,-0.5147 l 0.500705,-9.8e-4 v 3.85557 c 0,3.01525 0.01556,3.86828 0.07153,3.91382 0.03935,0.032 0.238909,0.11172 0.44348,0.17709 0.204575,0.0653 0.49427,0.16123 0.643768,0.21305 l 0.271811,0.094 v 0.36518 0.36516 h -2.57779 -2.577783 z M -26.370079,227.753 c -0.798441,-0.188 -1.158808,-0.81739 -0.959617,-1.67598 0.07072,-0.30481 0.410492,-0.63764 0.801778,-0.78539 0.248547,-0.0938 0.40541,-0.11427 0.725894,-0.0945 0.552813,0.0342 0.904756,0.2113 1.150509,0.57902 0.16605,0.24846 0.185976,0.32163 0.185976,0.68292 0,0.71219 -0.309779,1.12447 -0.959853,1.27745 -0.368395,0.0867 -0.627191,0.0912 -0.944687,0.0164 z m 41.851421,0.004 c -0.722,-0.15164 -1.134513,-0.81687 -0.977004,-1.57556 0.134263,-0.64675 0.775319,-1.04792 1.572322,-0.98394 0.719107,0.0577 1.168326,0.39397 1.289562,0.96527 0.140869,0.6638 -0.123036,1.2498 -0.672273,1.49275 -0.28777,0.1273 -0.861192,0.17528 -1.212607,0.10148 z m -28.530799,-6.18235 c -1.465231,-0.19757 -2.701179,-1.18032 -3.151123,-2.50561 -0.25563,-0.75295 -0.329601,-1.98652 -0.169342,-2.82402 0.298853,-1.56178 1.264028,-2.78497 2.660481,-3.37169 1.187889,-0.4991 2.886992,-0.46534 3.9120238,0.0778 0.8694466,0.46064 1.5832269,1.49361 1.8095216,2.61871 0.084892,0.42206 0.1599842,1.30407 0.1169536,1.37369 -0.021547,0.0349 -1.1623716,0.0615 -3.035693,0.0707 l -3.001174,0.0148 -0.01985,0.17167 c -0.02525,0.21851 0.07795,0.71122 0.23373,1.11586 0.334362,0.8685 0.9822,1.48192 1.874768,1.77516 0.330331,0.10852 1.558936,0.11339 2.0314331,0.008 0.1888373,-0.0421 0.6008461,-0.16464 0.9155755,-0.2723 l 0.572235,-0.19575 0.1284495,0.15785 c 0.070648,0.0868 0.1202148,0.1836 0.1101495,0.21508 -0.010065,0.0314 -0.186881,0.19884 -0.3929235,0.37195 -0.6347092,0.53323 -1.8038821,1.05612 -2.6782381,1.19779 -0.424062,0.0687 -1.408585,0.0689 -1.916986,3.2e-4 z m 0.941988,-5.54957 c 1.116588,-0.0416 1.58425,-0.0787 1.615686,-0.12818 0.113362,-0.17841 -0.004,-0.92257 -0.223951,-1.41975 -0.527319,-1.1921 -1.897031,-1.28707 -2.655864,-0.18414 -0.205798,0.29912 -0.426265,0.9208 -0.48051,1.35497 -0.04042,0.32348 -0.01304,0.43721 0.10504,0.43623 0.03749,-2.9e-4 0.775304,-0.0269 1.639599,-0.0591 z M 2.6011655,221.599 C 1.5081642,221.43942 0.63031574,221.00357 8.1836507e-4,220.30795 -0.35830487,219.91111 -0.78299854,219.09128 -0.88258822,218.60263 c -0.20541808,-1.00794 -0.22133158,-1.37052 -0.0928987,-2.11728 0.11729063,-0.68198 0.16054945,-0.83986 0.34540039,-1.26059 0.5144509,-1.17089 1.5136591,-2.09516 2.69339363,-2.49136 0.998634,-0.3354 2.7312366,-0.28273 3.8568182,0.11724 0.5777602,0.2053 1.0324338,0.44853 1.0617078,0.56797 0.016126,0.0658 0.022077,0.64763 0.013137,1.29282 l -0.016198,1.17309 H 6.2141823 5.4495923 L 5.3483365,215.5983 c -0.055689,-0.15737 -0.2205964,-0.65951 -0.3664518,-1.11587 -0.1458625,-0.45635 -0.2892653,-0.86779 -0.3186767,-0.91431 -0.037056,-0.0586 -0.1842557,-0.0912 -0.479092,-0.10607 -0.4805435,-0.0243 -0.9272565,0.0805 -1.3739767,0.32231 -0.8071836,0.43688 -1.3534323,1.60497 -1.3534323,2.89417 0,0.80106 0.2420141,1.6819 0.6147797,2.23759 0.4027047,0.60032 1.1724054,1.10877 1.874439,1.23826 0.3626651,0.0669 1.0998225,0.0344 1.4878133,-0.0656 0.5364465,-0.13828 0.8752038,-0.25203 1.1303594,-0.37956 l 0.272004,-0.13594 0.114041,0.18703 c 0.062715,0.10288 0.1141321,0.20732 0.1142534,0.23209 6.618e-4,0.0682 -0.5001472,0.54028 -0.7662973,0.72289 -0.5721017,0.39252 -1.4607095,0.75607 -2.1026431,0.86023 -0.3428629,0.0556 -1.2795014,0.0694 -1.5942804,0.0234 z m 36.1007155,-0.0172 c -0.323917,-0.0631 -0.799165,-0.31904 -1.062129,-0.57179 -0.131812,-0.12671 -0.318507,-0.39556 -0.414862,-0.59747 -0.158071,-0.3312 -0.1752,-0.4212 -0.1752,-0.92059 0,-0.50619 0.01627,-0.58866 0.190074,-0.96488 0.326901,-0.70754 1.080351,-1.27414 2.127478,-1.59988 0.644548,-0.20052 1.172978,-0.27018 2.04967,-0.27018 0.514814,0 0.782157,-0.0221 0.828672,-0.0687 0.095,-0.095 0.0861,-1.24339 -0.01285,-1.65725 -0.10026,-0.41935 -0.355359,-0.88459 -0.578227,-1.05459 -0.489858,-0.37363 -1.127218,-0.48711 -1.638122,-0.29167 l -0.266438,0.10192 -0.212935,0.6697 c -0.117115,0.36832 -0.245382,0.75982 -0.285035,0.86997 l -0.0721,0.20028 -0.778968,0.0159 -0.778969,0.0159 0.0011,-1.07456 c 5.52e-4,-0.591 0.0198,-1.10162 0.0429,-1.13471 0.06746,-0.0966 0.531729,-0.25329 1.444016,-0.4876 0.892774,-0.22928 2.545457,-0.31615 3.290346,-0.17293 0.220315,0.0424 0.580819,0.16053 0.801135,0.26261 0.689617,0.31952 1.069601,0.73423 1.318164,1.43862 l 0.138613,0.39282 0.0011,2.6968 c 0.0011,2.4306 0.01048,2.70457 0.09524,2.77534 0.05173,0.0432 0.328528,0.19442 0.615152,0.33605 l 0.521129,0.2575 v 0.37195 0.37196 l -1.578747,0.0104 -1.578746,0.0104 -0.132452,-0.38236 c -0.155858,-0.44997 -0.27326,-0.69719 -0.33091,-0.69682 -0.02283,1.7e-4 -0.118703,0.0716 -0.213117,0.1586 -0.458647,0.42304 -1.241476,0.82742 -1.859767,0.96067 -0.388268,0.0837 -1.138877,0.0981 -1.495096,0.0286 z m 3.176965,-1.5203 c 0.452939,-0.13741 0.435407,-0.0856 0.435407,-1.28721 0,-0.88636 -0.015,-1.08569 -0.08623,-1.14481 -0.06256,-0.0519 -0.25495,-0.0633 -0.700984,-0.0414 -1.06862,0.0525 -1.564478,0.26555 -1.830762,0.78675 -0.321865,0.62999 0.02664,1.43297 0.732581,1.6879 0.280623,0.10133 1.114202,0.10061 1.449988,-9.9e-4 z m -70.567741,1.41271 c -0.05089,-0.0339 -0.06911,-0.15618 -0.05723,-0.38443 l 0.01742,-0.33478 0.734972,-0.21529 c 0.404234,-0.11841 0.771179,-0.24534 0.815434,-0.28208 0.112634,-0.0935 0.121382,-8.70494 0.0089,-8.79225 -0.03934,-0.0305 -0.380536,-0.15382 -0.758211,-0.27394 -0.377675,-0.12013 -0.720032,-0.24404 -0.760793,-0.27535 -0.04907,-0.0377 -0.06841,-0.16504 -0.05723,-0.37683 l 0.01689,-0.31988 3.347573,-0.0169 c 2.367374,-0.0119 3.448107,0.003 3.690913,0.0495 1.143633,0.22098 1.70902,0.47254 2.227317,0.99105 0.548175,0.5484 0.836413,1.30012 0.832102,2.17013 -0.006,1.20757 -0.579904,2.11851 -1.655544,2.62773 -0.314364,0.14882 -0.51541,0.27771 -0.51479,0.33003 5.74e-4,0.0473 0.167376,0.34333 0.370703,0.65807 0.203327,0.31472 0.41241,0.64948 0.464628,0.7439 0.05222,0.0944 0.25368,0.41629 0.447689,0.7153 0.194011,0.29899 0.518546,0.80698 0.72119,1.12885 0.403969,0.64167 0.390297,0.63167 1.321747,0.96642 0.231033,0.083 0.438979,0.17988 0.462101,0.21523 0.05106,0.0781 0.0572,0.50639 0.0091,0.63182 -0.03065,0.0799 -0.245525,0.0905 -1.827562,0.0905 H -20.6244 l -0.412997,-0.75821 c -0.643789,-1.18192 -0.706132,-1.29716 -0.99846,-1.84545 -0.151016,-0.28326 -0.456906,-0.8502 -0.679758,-1.25985 -0.222851,-0.40966 -0.441724,-0.81524 -0.486383,-0.90127 -0.07945,-0.15309 -0.0924,-0.15644 -0.603708,-0.15644 -0.330098,0 -0.547795,0.0253 -0.591177,0.0687 -0.05033,0.0503 -0.06867,0.523 -0.06867,1.76984 0,1.80305 0.0034,1.82618 0.272149,1.90146 0.05489,0.0154 0.377697,0.11159 0.717346,0.21384 l 0.617543,0.18591 -0.01669,0.37644 -0.01669,0.37644 -2.861174,0.0157 c -1.573645,0.009 -2.894767,-0.007 -2.935826,-0.0339 z m 5.156582,-5.96558 c 0.865777,-0.12863 1.498761,-0.51195 1.778784,-1.07718 0.423112,-0.85405 0.245737,-2.10583 -0.381729,-2.69396 -0.386122,-0.36193 -1.064259,-0.57252 -1.846743,-0.5735 -0.193545,-2.2e-4 -0.376481,0.0298 -0.41487,0.0682 -0.05087,0.0509 -0.06867,0.60403 -0.06867,2.13443 0,1.53042 0.01779,2.08357 0.06867,2.13445 0.08482,0.0848 0.329974,0.087 0.864558,0.008 z m 16.5952387,5.91973 c -0.013523,-0.0353 -0.016678,-0.19851 -0.00703,-0.36284 l 0.017554,-0.2988 0.4863996,-0.17288 c 0.2675201,-0.0951 0.5450822,-0.18601 0.6168004,-0.20207 0.301402,-0.0675 0.2987751,-0.0394 0.2987751,-3.19292 0,-2.36041 -0.014835,-2.94364 -0.077068,-3.02874 -0.068216,-0.0933 -0.1547382,-0.10411 -0.7532381,-0.0942 -0.7461543,0.0123 -0.770131,0.002 -0.7702909,-0.33729 0,-0.30722 0.056096,-0.45086 0.1904968,-0.48651 0.179916,-0.0477 0.4399972,-0.1207 1.2384304,-0.34752 1.4078273,-0.39993 1.512273,-0.42218 1.9885132,-0.42354 l 0.4720944,-9.9e-4 v 3.82304 c 0,2.97287 0.015895,3.8428 0.07153,3.91193 0.03934,0.0489 0.3161568,0.17286 0.6151525,0.27548 0.7941904,0.27261 0.75199,0.23526 0.7322384,0.64803 l -0.016937,0.35422 h -2.5394199 c -1.8204592,0 -2.546379,-0.0182 -2.5639978,-0.0641 z m 14.9236328,0.0393 c -0.045699,-0.0283 -0.063837,-0.15981 -0.052433,-0.38044 l 0.017439,-0.33725 0.600845,-0.2015 c 0.3304676,-0.11082 0.6330354,-0.22213 0.6723763,-0.24736 0.056394,-0.0362 0.071532,-1.18959 0.071532,-5.45151 v -5.40566 l -0.1467866,-0.0558 c -0.080732,-0.0306 -0.4283634,-0.0558 -0.7725168,-0.0558 H 7.7512806 v -0.3681 c 0,-0.30104 0.018244,-0.37354 0.1001434,-0.39798 0.055075,-0.0164 0.6446956,-0.18554 1.3102645,-0.37581 1.1531985,-0.32965 1.2400225,-0.34592 1.8454585,-0.34592 h 0.63533 v 2.89158 c 0,2.50056 0.01145,2.89598 0.08471,2.92409 0.04712,0.0181 0.205825,-0.0558 0.357648,-0.16651 0.479247,-0.34946 1.304915,-0.72739 1.932409,-0.88452 0.413942,-0.10366 1.523018,-0.11453 1.838425,-0.018 0.92263,0.28231 1.521869,1.02744 1.730839,2.15225 0.04149,0.22333 0.06474,1.25216 0.0653,2.88979 6.62e-4,1.39865 0.02171,2.57583 0.04718,2.61595 0.02547,0.0401 0.300951,0.1628 0.612182,0.27259 0.311235,0.10979 0.587532,0.22127 0.614001,0.24773 0.02648,0.0265 0.04028,0.19994 0.03072,0.3855 l -0.01743,0.33737 h -2.489228 -2.489222 l -0.017,-0.35576 c -0.01952,-0.40878 -0.07233,-0.36611 0.833428,-0.67346 0.373376,-0.1267 0.479902,-0.18767 0.505409,-0.28927 0.01777,-0.0708 0.02271,-1.12926 0.01095,-2.35213 -0.02088,-2.17247 -0.02442,-2.23116 -0.15549,-2.56209 -0.170022,-0.4293 -0.495362,-0.78362 -0.878215,-0.95645 -0.253099,-0.11426 -0.391529,-0.13506 -0.899951,-0.13523 -0.659131,-2.4e-4 -1.510804,0.18542 -1.645175,0.35863 -0.05498,0.0709 -0.07153,0.73674 -0.07153,2.87822 0,2.49563 0.0097,2.794 0.09248,2.86275 0.09415,0.0782 0.348509,0.18237 0.708643,0.29039 0.452089,0.13559 0.515009,0.19692 0.515009,0.50201 0,0.50906 0.232753,0.46618 -2.486645,0.45809 -1.328544,-0.004 -2.4469781,-0.0266 -2.4854056,-0.0504 z M 19.71098,221.12033 c 0,-0.31979 0.01747,-0.40056 0.08676,-0.40056 0.04771,0 0.356717,-0.0932 0.686678,-0.20724 l 0.599928,-0.20724 v -3.11001 -3.11002 l -0.7296,-0.016 -0.729598,-0.016 -0.0167,-0.37641 -0.0167,-0.3764 0.417255,-0.11961 c 0.229497,-0.0658 0.867866,-0.25046 1.4186,-0.41041 0.62988,-0.18294 1.111056,-0.29082 1.297102,-0.29082 0.329462,0 0.306714,-0.0309 0.567983,0.77252 0.14778,0.45444 0.152746,0.45556 0.620468,0.13821 0.506336,-0.34354 1.239152,-0.66892 1.746154,-0.77531 0.519283,-0.10896 1.512177,-0.12015 1.834053,-0.0207 0.53509,0.16539 0.989659,0.51522 1.292677,0.99485 0.09159,0.14497 0.183862,0.26361 0.205052,0.26367 0.0212,5e-5 0.111316,-0.0594 0.20028,-0.13204 0.08897,-0.0727 0.329504,-0.23662 0.534525,-0.36433 1.011905,-0.63025 1.614271,-0.81761 2.631463,-0.81848 0.983912,-9.8e-4 1.330491,0.11702 1.83278,0.62321 0.174533,0.17588 0.385339,0.46141 0.468459,0.63451 0.306544,0.63841 0.321854,0.79465 0.365319,3.72884 0.03987,2.69306 0.04192,2.72816 0.160425,2.78643 0.06601,0.0325 0.30874,0.125 0.539379,0.20567 0.65458,0.22893 0.63928,0.21443 0.63928,0.60568 0,0.23598 -0.02206,0.34072 -0.07153,0.33935 -0.03933,-9.9e-4 -1.165924,0.006 -2.503525,0.0142 l -2.431997,0.0163 v -0.36203 -0.36204 l 0.314728,-0.11384 c 0.173099,-0.0627 0.439549,-0.15548 0.592093,-0.20638 0.465486,-0.15531 0.449326,-0.0584 0.424299,-2.54289 -0.01924,-1.9071 -0.03535,-2.23277 -0.123821,-2.50269 -0.249287,-0.7603 -0.692397,-1.13292 -1.515041,-1.27398 -0.355756,-0.061 -0.457248,-0.0549 -0.951394,0.0562 -0.304241,0.0685 -0.618597,0.15705 -0.69858,0.19682 l -0.145422,0.0724 0.01018,2.79362 c 0.0056,1.53649 0.03209,2.85124 0.05886,2.92166 0.0361,0.095 0.196705,0.18518 0.621808,0.34925 l 0.573121,0.2212 0.01906,0.29748 c 0.03473,0.54302 0.294181,0.49259 -2.432089,0.4728 l -2.412879,-0.0175 v -0.36662 -0.36661 l 0.555583,-0.20563 c 0.305569,-0.1131 0.583987,-0.23427 0.618719,-0.26928 0.102412,-0.10324 0.04364,-4.61812 -0.06398,-4.91479 -0.140808,-0.38817 -0.266376,-0.57861 -0.540722,-0.8201 -0.357231,-0.31445 -0.739496,-0.43998 -1.313513,-0.43132 -0.603587,0.009 -1.385589,0.24852 -1.431633,0.43832 -0.01687,0.0695 -0.02352,1.38712 -0.01479,2.92799 l 0.01586,2.80157 0.371952,0.13801 c 0.204575,0.0759 0.487833,0.18446 0.62946,0.24122 l 0.257505,0.10323 0.01743,0.32806 c 0.01186,0.22356 -0.0063,0.34318 -0.05723,0.37544 -0.04106,0.026 -1.188367,0.0477 -2.549571,0.0482 l -2.474916,9.9e-4 z m 27.020656,0.35182 c -0.05102,-0.0326 -0.06913,-0.15332 -0.05722,-0.38117 l 0.01743,-0.33348 0.608063,-0.20484 c 0.334441,-0.11266 0.649887,-0.24017 0.70099,-0.28337 0.08354,-0.0706 0.09292,-0.37784 0.09292,-3.04246 0,-1.63017 -0.01561,-3.00467 -0.03475,-3.05446 -0.02895,-0.0755 -0.147084,-0.0905 -0.710613,-0.0905 -0.371734,0 -0.716608,-0.0156 -0.766395,-0.0348 -0.06685,-0.0256 -0.09051,-0.11437 -0.09051,-0.33926 0,-0.32312 0.09421,-0.48437 0.28301,-0.48437 0.05674,0 0.215842,-0.0398 0.353562,-0.0886 0.137714,-0.0487 0.430647,-0.13741 0.650956,-0.1971 0.220314,-0.0597 0.676579,-0.18859 1.013942,-0.28644 0.422457,-0.12253 0.705551,-0.1725 0.909513,-0.16054 l 0.296126,0.0173 0.138525,0.45779 c 0.185061,0.61158 0.249688,0.77251 0.310222,0.77251 0.0279,0 0.159996,-0.0796 0.293485,-0.17671 0.657574,-0.47879 1.352403,-0.80953 1.988021,-0.94635 0.469,-0.10097 1.611082,-0.10461 1.916981,-0.006 0.810851,0.26104 1.291697,0.77929 1.598682,1.72305 l 0.146633,0.45078 0.0011,2.63928 c 5.52e-4,1.98048 0.01847,2.67377 0.07153,2.77747 0.05218,0.10195 0.191905,0.17883 0.533118,0.29324 0.733722,0.24602 0.718737,0.23219 0.698988,0.64494 l -0.01699,0.35422 h -2.489224 -2.489223 v -0.36291 c 0,-0.41106 -0.09772,-0.3299 0.781543,-0.64906 0.616912,-0.22392 0.56321,0.004 0.56321,-2.39198 0,-2.19767 -0.0268,-2.5196 -0.249897,-3.00085 -0.265324,-0.57236 -0.78647,-0.91425 -1.509134,-0.99004 -0.46157,-0.0484 -1.667049,0.23828 -1.831738,0.43563 -0.0551,0.066 -0.07153,0.7264 -0.07153,2.86985 0,3.18908 -0.06358,2.86254 0.600844,3.08558 0.727138,0.24406 0.723177,0.24042 0.703642,0.64902 l -0.01699,0.3548 -2.431992,0.0137 c -1.337601,0.008 -2.465597,-0.008 -2.506658,-0.0339 z m -96.280233,-0.75968 c -0.09566,-0.0556 -0.271792,-0.39741 -0.941452,-1.82685 -0.228403,-0.48754 -0.230442,-0.48979 -0.535593,-0.5885 -0.368715,-0.11926 -2.399512,-0.69949 -2.881373,-0.82325 -0.188837,-0.0484 -0.438158,-0.13591 -0.554046,-0.19424 -0.456151,-0.22963 -0.359671,-0.29992 0.697106,-0.50789 0.141627,-0.0279 0.502135,-0.10454 0.801127,-0.17036 0.298993,-0.0658 0.672376,-0.14367 0.82974,-0.17298 0.613991,-0.11431 0.630717,-0.1253 0.618547,-0.4064 -0.01182,-0.27299 -0.0799,-0.66092 -0.251347,-1.43222 -0.132136,-0.59443 -0.137635,-0.78691 -0.02373,-0.83062 0.151204,-0.058 0.333482,0.0238 0.905805,0.40642 0.307701,0.20574 0.570645,0.37406 0.584319,0.37406 0.01367,0 0.07021,0.0374 0.125657,0.083 0.05544,0.0457 0.474178,0.3309 0.930535,0.63383 l 0.82974,0.55077 0.515012,-0.0356 c 0.283257,-0.0196 0.824018,-0.0719 1.201692,-0.11607 1.595114,-0.18682 1.859763,-0.17187 1.859763,0.1051 0,0.0751 -0.07082,0.2294 -0.157365,0.34281 -0.42908,0.56219 -0.987104,1.40208 -0.987104,1.48569 0,0.0424 0.05794,0.12743 0.128753,0.18888 0.07082,0.0615 0.5472,0.46652 1.058634,0.90014 0.654645,0.55502 0.929881,0.82385 0.929881,0.90821 0,0.11451 -0.01966,0.11818 -0.443481,0.0826 -0.243915,-0.0205 -0.536388,-0.063 -0.649938,-0.0945 -0.113551,-0.0315 -0.435433,-0.0927 -0.715294,-0.1361 -0.27986,-0.0434 -0.784379,-0.12486 -1.121153,-0.18112 l -0.612317,-0.10231 -0.274647,0.24843 c -0.151056,0.13662 -0.493527,0.45745 -0.761047,0.71295 -0.711296,0.67932 -0.842127,0.74981 -1.106423,0.59615 z m 44.8072388,-9.9301 c -0.2892251,-0.0499 -0.6318161,-0.27209 -0.8091515,-0.52479 -0.1504748,-0.21444 -0.1764486,-0.30697 -0.1927001,-0.68669 -0.016083,-0.37574 9.883e-4,-0.47589 0.1186761,-0.69636 0.341944,-0.64057 1.4208177,-0.86169 2.2212209,-0.45527 0.1123457,0.057 0.2791637,0.21501 0.3706979,0.35103 0.1509448,0.22428 0.1665489,0.29258 0.1676878,0.7337 0.00132,0.44814 -0.012426,0.50665 -0.1725671,0.7439 -0.2496321,0.36983 -0.5575812,0.52194 -1.1017313,0.54421 -0.2426378,0.01 -0.5135966,0.006 -0.6021327,-0.01 z m -42.7051448,-2.29498 c -0.111704,-0.0746 -0.188898,-0.27478 -0.361473,-0.93744 -0.504891,-1.93871 -0.453887,-1.8273 -0.890604,-1.94551 -0.126496,-0.0342 -0.474623,-0.13319 -0.773615,-0.21988 -0.298994,-0.0867 -0.801129,-0.22824 -1.115859,-0.31455 -0.314729,-0.0863 -0.675237,-0.18925 -0.801128,-0.22875 -0.125891,-0.0395 -0.377135,-0.11628 -0.558317,-0.17061 -0.429204,-0.12869 -0.609548,-0.27126 -0.522866,-0.41333 0.03481,-0.057 0.163561,-0.12033 0.286116,-0.1406 0.122558,-0.0203 0.480338,-0.092 0.795067,-0.15946 0.314729,-0.0674 0.726738,-0.14598 0.915576,-0.17457 0.717326,-0.10858 1.645203,-0.33205 1.694803,-0.40817 0.02841,-0.0436 0.03904,-0.13319 0.02362,-0.19907 -0.0262,-0.11199 -0.178735,-1.1313 -0.323403,-2.1611 -0.05884,-0.41882 -0.05538,-0.45756 0.05031,-0.56323 0.104826,-0.10483 0.126058,-0.10693 0.278263,-0.0274 0.09062,0.0473 0.450297,0.32655 0.799266,0.62046 0.348969,0.29391 0.954107,0.80206 1.344752,1.12922 0.390645,0.32716 0.753778,0.63232 0.806961,0.67812 0.08507,0.0733 0.215801,0.0648 1.087246,-0.0703 2.037967,-0.31598 2.575751,-0.36763 2.705595,-0.25987 0.217479,0.18049 0.115772,0.33598 -1.136495,1.73745 -0.192311,0.21523 -0.374264,0.44359 -0.404339,0.50748 -0.05973,0.12686 -0.10361,0.0807 1.403771,1.47598 0.800193,0.74066 0.794713,0.73464 0.795914,0.8745 0.0014,0.15861 -0.210718,0.20207 -0.566233,0.11605 -0.317883,-0.0769 -0.683025,-0.15827 -1.120983,-0.24979 -0.125892,-0.0263 -0.447774,-0.0994 -0.715294,-0.16244 -0.26752,-0.0631 -0.666653,-0.15442 -0.886963,-0.20311 -0.22031,-0.0487 -0.429797,-0.0996 -0.465524,-0.1131 -0.113746,-0.0431 -0.289129,0.12466 -1.000411,0.95667 -0.382099,0.44696 -0.757212,0.87059 -0.833584,0.9414 -0.136305,0.12638 -0.385886,0.16794 -0.510171,0.085 z m 11.090888,-11.02617 c -0.09911,-0.12599 -0.114614,-0.2818 -0.15224,-1.52958 -0.02304,-0.76412 -0.0644,-1.43135 -0.0919,-1.48274 -0.06266,-0.11707 -0.22906,-0.18286 -0.912734,-0.36083 -0.513988,-0.13379 -0.898094,-0.23965 -1.48781,-0.41003 -0.141628,-0.0409 -0.688587,-0.19324 -1.215465,-0.33849 -0.526878,-0.14525 -1.054764,-0.30407 -1.173082,-0.35293 -0.227801,-0.0941 -0.415403,-0.23576 -0.415403,-0.31373 0,-0.1 0.337644,-0.20765 0.858352,-0.27368 0.298992,-0.0379 0.698127,-0.0919 0.886965,-0.12007 0.704226,-0.10488 1.923716,-0.2542 3.118679,-0.38187 0.173101,-0.0185 0.346916,-0.059 0.386257,-0.0901 0.05305,-0.0418 0.07301,-0.38373 0.07726,-1.32269 0.0076,-1.67782 0.05468,-2.37028 0.165937,-2.44055 0.0472,-0.0299 0.187319,-0.0546 0.311356,-0.055 0.219021,-9.9e-4 0.2704,0.0438 1.78288,1.54971 1.172945,1.16785 1.583398,1.54333 1.662852,1.52119 0.05803,-0.0161 0.453128,-0.083 0.878012,-0.1486 0.424885,-0.0655 1.0944,-0.16953 1.487811,-0.23102 2.194834,-0.34311 2.525192,-0.35261 2.564779,-0.0738 0.02164,0.15243 -0.119697,0.2997 -0.754803,0.78644 -0.246397,0.18884 -0.503373,0.39062 -0.571056,0.44841 -0.06768,0.0578 -0.451383,0.36516 -0.852662,0.68304 -0.40128,0.31787 -0.729599,0.61978 -0.729599,0.67093 0,0.0511 0.553637,0.64109 1.230304,1.311 1.221684,1.2095 1.367768,1.4014 1.163115,1.52788 -0.11342,0.0701 -0.520017,0.0464 -0.908157,-0.0531 -0.203172,-0.0521 -1.112096,-0.27692 -2.019832,-0.49975 -0.907735,-0.22282 -1.682497,-0.41743 -1.721696,-0.43247 -0.08578,-0.0329 -0.311167,0.15326 -1.498161,1.23751 -1.471595,1.34422 -1.433896,1.3153 -1.714318,1.3153 -0.192197,0 -0.269181,-0.0303 -0.355643,-0.14029 z"
       id="path854" />
  </g>
</svg>
